<svg width="24" height="24" viewBox="0 0 24 24" fill="none" xmlns="http://www.w3.org/2000/svg">
  <path d="M12 12C13.6569 12 15 10.6569 15 9C15 7.34315 13.6569 6 12 6C10.3431 6 9 7.34315 9 9C9 10.6569 10.3431 12 12 12Z" fill="white"/>
  <path d="M18 3H15.83L14.41 1.59C14.03 1.21 13.52 1 13 1H11C10.48 1 9.97 1.21 9.59 1.59L8.17 3H6C4.9 3 4 3.9 4 5V17C4 18.1 4.9 19 6 19H18C19.1 19 20 18.1 20 17V5C20 3.9 19.1 3 18 3ZM12 15C8.69 15 6 12.31 6 9C6 5.69 8.69 3 12 3C15.31 3 18 5.69 18 9C18 12.31 15.31 15 12 15Z" fill="white"/>
</svg>