<svg xmlns="http://www.w3.org/2000/svg" viewBox="0 0 24 24" fill="none">
  <path d="M12 4.2C9.2 4.2 6.9 6.2 6.5 9" stroke="#FFFFFF" stroke-width="1.6" stroke-linecap="round"/>
  <path d="M12 6.7C10.4 6.7 9 7.9 8.8 9.7" stroke="#FFFFFF" stroke-width="1.6" stroke-linecap="round"/>
  <path d="M12 9.1C11.1 9.1 10.4 9.8 10.3 10.8" stroke="#FFFFFF" stroke-width="1.6" stroke-linecap="round"/>
  <path d="M17.7 9.4C17.3 6.3 14.9 4.2 12 4.2" stroke="#FFFFFF" stroke-width="1.6" stroke-linecap="round"/>
  <path d="M15.7 18.6C17.8 17.2 19.1 14.8 19.1 12.1C19.1 10.9 18.9 9.9 18.5 8.9" stroke="#FFFFFF" stroke-width="1.6" stroke-linecap="round"/>
  <path d="M8.4 18.7C6.2 17.4 4.8 14.9 4.8 12.1C4.8 10.8 5.1 9.6 5.6 8.6" stroke="#FFFFFF" stroke-width="1.6" stroke-linecap="round"/>
  <path d="M12 10.6V15.9" stroke="#FFFFFF" stroke-width="1.6" stroke-linecap="round"/>
  <path d="M12 15.9C11.9 18 10.8 19.2 9.5 20.1" stroke="#FFFFFF" stroke-width="1.6" stroke-linecap="round"/>
  <path d="M12 15.9C12.2 18 13.2 19.1 14.5 20" stroke="#FFFFFF" stroke-width="1.6" stroke-linecap="round"/>
</svg>
